<svg width="514" height="128" xmlns="http://www.w3.org/2000/svg" xmlns:xlink="http://www.w3.org/1999/xlink" overflow="hidden"><defs><clipPath id="clip0"><path d="M383 491 897 491 897 619 383 619Z" fill-rule="evenodd" clip-rule="evenodd"/></clipPath><clipPath id="clip1"><path d="M384 491 896 491 896 618 384 618Z" fill-rule="evenodd" clip-rule="evenodd"/></clipPath><clipPath id="clip2"><path d="M384 491 896 491 896 618 384 618Z" fill-rule="evenodd" clip-rule="evenodd"/></clipPath><clipPath id="clip3"><path d="M384 105 896 105 896 618 384 618Z" fill-rule="evenodd" clip-rule="evenodd"/></clipPath><linearGradient x1="424.104" y1="445.588" x2="70.984" y2="92.468" gradientUnits="userSpaceOnUse" spreadMethod="pad" id="fill4"><stop offset="0" stop-color="#20C6C5"/><stop offset="1" stop-color="#FB642B"/></linearGradient></defs><g clip-path="url(#clip0)" transform="translate(-383 -491)"><g clip-path="url(#clip1)"><g clip-path="url(#clip2)"><g clip-path="url(#clip3)"><path d="M130.488 291.6C126.622 291.6 123.488 288.466 123.488 284.6 123.488 280.734 126.622 277.6 130.488 277.6L136.488 277.6C140.354 277.6 143.488 280.734 143.488 284.6 143.488 288.466 140.354 291.6 136.488 291.6ZM464.888 249.884 464.888 284.6C464.888 288.466 461.754 291.6 457.888 291.6L167.488 291.6C163.622 291.6 160.488 288.466 160.488 284.6 160.488 280.734 163.622 277.6 167.488 277.6L450.896 277.6 450.896 256.884 309.128 256.884 309.024 256.884 308.948 256.884 278.256 256.884 278.2 256.884 278.152 256.884 115.064 256.884 115.012 256.884 114.964 256.884 61.092 256.884 61.092 277.6 102 277.6C105.866 277.6 109 280.734 109 284.6 109 288.466 105.866 291.6 102 291.6L76.232 291.6 98.924 430.86C100.635 441.592 109.909 449.477 120.776 449.44L391.224 449.44C402.091 449.477 411.365 441.592 413.076 430.86L432.848 309.504C433.411 305.679 436.968 303.035 440.793 303.598 444.618 304.161 447.262 307.718 446.699 311.543 446.688 311.614 446.677 311.685 446.664 311.756L426.892 433.112C424.097 450.628 408.961 463.498 391.224 463.44L120.776 463.44C103.039 463.498 87.9025 450.628 85.108 433.112L62.048 291.6 54.092 291.6C50.226 291.6 47.092 288.466 47.092 284.6L47.092 249.884C47.092 246.018 50.226 242.884 54.092 242.884L105.512 242.884 90.228 193.6C90.172 193.42 90.144 193.24 90.088 193.06L90.088 193.036 90.088 193.012C84.6222 174.862 88.254 155.19 99.84 140.188 85.0012 135.576 76.711 119.807 81.3234 104.969 83.624 97.5671 88.876 91.4425 95.84 88.04 92.5155 69.8418 104.573 52.3943 122.771 49.0697 140.516 45.828 157.641 57.2207 161.508 74.84 161.761 75.9768 161.952 77.1265 162.08 78.284 179.752 84.9266 188.693 104.638 182.051 122.31 181.373 124.113 180.544 125.856 179.572 127.52 180.608 128.224 181.616 128.972 182.604 129.74 185.471 85.2563 223.856 51.5192 268.34 54.3861 285.821 55.5127 302.461 62.2961 315.748 73.712 318.682 76.2304 319.018 80.6503 316.5 83.584 313.982 86.5177 309.562 86.8544 306.628 84.336 278.716 60.2657 236.576 63.38 212.506 91.2919 191.08 116.137 190.891 152.871 212.06 177.936 214.554 180.89 214.182 185.306 211.229 187.801 211.061 187.942 210.888 188.075 210.708 188.2 200.266 195.417 197.651 209.733 204.869 220.175 209.979 227.569 218.93 231.306 227.78 229.74 228.847 229.54 229.899 229.266 230.928 228.92 234.608 227.734 238.552 229.756 239.738 233.436 239.77 233.536 239.8 233.638 239.828 233.74 240.7 236.952 242.018 240.026 243.744 242.872L269.06 242.872C262.166 216.405 257.281 189.455 254.448 162.252L218.8 135.096C215.756 132.713 215.221 128.313 217.604 125.269 219.944 122.28 224.24 121.701 227.288 123.964L252.8 143.408C251.77 129.917 251.467 116.38 251.892 102.856 252.08 98.99 255.366 96.0082 259.232 96.196 263.098 96.3838 266.08 99.67 265.892 103.536 265.382 131.119 267.315 158.694 271.668 185.936L291.948 149.6C293.833 146.224 298.098 145.017 301.474 146.902 304.85 148.788 306.057 153.052 304.172 156.428L275.456 207.872C277.636 219.072 280.3 230.816 283.548 242.884L305.308 242.884C313.671 229.12 311.848 211.472 300.848 199.708 298.21 196.879 298.365 192.447 301.194 189.809 301.413 189.605 301.645 189.415 301.888 189.24 308.021 184.825 313.361 179.401 317.68 173.2 300.76 143.91 310.787 106.449 340.078 89.5282 369.368 72.6077 406.829 82.6355 423.75 111.926 430.955 124.399 433.534 139.014 431.032 153.2 429.547 161.592 426.323 169.58 421.568 176.652 432.069 188.772 430.757 207.109 418.637 217.61 417.882 218.264 417.094 218.879 416.276 219.452 410.742 223.354 404.012 225.184 397.264 224.624 393.577 232.559 387.286 238.993 379.436 242.856L457.904 242.856C461.77 242.854 464.906 245.986 464.908 249.852 464.908 249.863 464.908 249.873 464.908 249.884ZM343.2 181.028C346.343 183.279 347.066 187.652 344.814 190.795 344.638 191.041 344.446 191.275 344.24 191.496 334.965 201.421 335.491 216.985 345.416 226.26 347.176 227.905 349.168 229.282 351.328 230.348 354.804 218.628 357.512 207.252 359.616 196.52L338.816 159.292C336.931 155.916 338.138 151.652 341.514 149.766 344.89 147.881 349.155 149.088 351.04 152.464L363.3 174.4C365.952 156.24 367.112 137.893 366.768 119.544 366.585 115.684 369.564 112.406 373.424 112.22 377.239 111.99 380.518 114.896 380.748 118.711 380.751 118.763 380.754 118.815 380.756 118.868 380.804 119.856 381.22 129.492 380.356 144.868L395.9 133.016C399.004 130.712 403.389 131.36 405.693 134.464 407.956 137.512 407.377 141.808 404.388 144.148L378.8 163.652C376.338 187.042 371.797 210.167 365.232 232.752 375.174 231.578 383.399 224.468 386 214.8 387.022 211.074 390.872 208.882 394.598 209.905 394.705 209.934 394.811 209.966 394.916 210 395.582 210.226 396.264 210.404 396.956 210.532 405.148 211.971 412.956 206.497 414.395 198.305 415.41 192.525 412.976 186.681 408.156 183.332 404.981 181.127 404.195 176.765 406.4 173.589 406.525 173.409 406.659 173.235 406.8 173.068 423.637 153.11 421.107 123.281 401.149 106.443 381.19 89.6058 351.361 92.1359 334.524 112.094 317.687 132.053 320.217 161.882 340.175 178.719 341.151 179.543 342.16 180.326 343.2 181.068ZM320.84 242.884 345.104 242.884C325.995 233.438 318.162 210.29 327.607 191.181 328.166 190.05 328.781 188.947 329.448 187.876 328.404 186.92 327.404 185.928 326.432 184.908 323.262 188.959 319.711 192.696 315.828 196.068 325.258 209.835 327.139 227.418 320.836 242.868ZM111.264 127.152C115.103 126.3 118.407 123.873 120.368 120.464 121.626 118.327 123.921 117.016 126.4 117.016 128.888 117.022 131.186 118.348 132.436 120.5 138.053 130.167 150.443 133.451 160.11 127.834 161.712 126.903 163.178 125.757 164.468 124.428 164.516 124.384 164.556 124.332 164.604 124.288 165.5 123.341 166.304 122.311 167.004 121.212 173.016 111.783 170.246 99.2655 160.817 93.2534 158.676 91.8881 156.297 90.9377 153.804 90.452 150.374 89.7765 147.968 86.6741 148.168 83.184 148.817 72.4362 140.631 63.1973 129.883 62.5481 119.135 61.899 109.896 70.0856 109.247 80.8333 109.061 83.9058 109.606 86.9785 110.836 89.8 112.361 93.3526 110.717 97.4686 107.164 98.9935 106.659 99.2104 106.13 99.367 105.588 99.46 105.424 99.488 105.064 99.532 104.788 99.556 97.195 101.446 92.572 109.134 94.4622 116.727 96.3095 124.147 103.712 128.763 111.188 127.156ZM120.172 242.884 200.724 242.884 199.668 235.104C193.183 229.549 188.829 221.914 187.352 213.504 187.18 212.536 187.112 211.568 187.02 210.6L150.052 218.776C146.277 219.611 142.539 217.227 141.704 213.452 140.869 209.677 143.253 205.939 147.028 205.104L188.576 195.904C190.292 190.509 193.215 185.576 197.124 181.48 190.865 172.625 186.457 162.598 184.164 152 180.543 146.367 175.702 141.619 170 138.108 166.221 140.835 161.923 142.76 157.372 143.764 154.92 144.301 152.418 144.569 149.908 144.564 141.441 144.557 133.281 141.395 127.02 135.696 109.134 144.256 99.0268 163.578 102.196 183.152L124.052 178.32C127.83 177.488 131.566 179.876 132.398 183.654 133.23 187.432 130.842 191.168 127.064 192L105.864 196.688ZM249 321.168 249 419.076C249 422.942 252.134 426.076 256 426.076 259.866 426.076 263 422.942 263 419.076L263 321.168C263 317.302 259.866 314.168 256 314.168 252.134 314.168 249 317.302 249 321.168ZM196.248 314.192C192.397 314.51 189.532 317.889 189.848 321.74L197.848 419.648C198.146 423.277 201.175 426.072 204.816 426.076 205.008 426.076 205.216 426.076 205.396 426.052 209.247 425.734 212.112 422.355 211.796 418.504L203.796 320.596C203.473 316.747 200.098 313.883 196.248 314.192ZM143.58 420.192C144.157 424.015 147.723 426.646 151.546 426.069 155.369 425.492 158 421.926 157.423 418.103 157.415 418.047 157.406 417.992 157.396 417.936L141.396 320.028C140.819 316.205 137.253 313.574 133.43 314.151 129.607 314.728 126.976 318.294 127.553 322.117 127.561 322.173 127.57 322.228 127.58 322.284ZM308.208 320.592 300.208 418.5C299.892 422.351 302.757 425.73 306.608 426.048 306.8 426.048 307.008 426.072 307.188 426.072 310.829 426.068 313.858 423.273 314.156 419.644L322.156 321.736C322.414 317.879 319.497 314.542 315.639 314.284 311.862 314.031 308.568 316.827 308.204 320.596ZM375.78 375.164 384.42 322.296C385.089 318.488 382.545 314.859 378.737 314.19 374.929 313.521 371.3 316.065 370.631 319.873 370.621 319.929 370.612 319.984 370.604 320.04L361.964 372.908C361.295 376.716 363.839 380.345 367.647 381.014 371.455 381.683 375.084 379.139 375.753 375.331 375.763 375.275 375.772 375.22 375.78 375.164ZM358.284 395.408 354.604 417.948C353.935 421.756 356.479 425.385 360.287 426.054 364.095 426.723 367.724 424.179 368.393 420.371 368.403 420.315 368.412 420.26 368.42 420.204L372.1 397.664C372.769 393.856 370.225 390.227 366.417 389.558 362.609 388.889 358.98 391.433 358.311 395.241 358.301 395.297 358.292 395.352 358.284 395.408Z" fill="url(#fill4)" transform="matrix(1 0 -0 1.00019 384 105.903)"/></g></g></g></g></svg>