<svg id="Layer_1" height="512" viewBox="0 0 128 128" width="512" xmlns="http://www.w3.org/2000/svg" xmlns:xlink="http://www.w3.org/1999/xlink" data-name="Layer 1"><linearGradient id="linear-gradient" gradientUnits="userSpaceOnUse" x1="106.026" x2="17.746" y1="111.397" y2="23.117"><stop offset="0" stop-color="#20c6c5"/><stop offset="1" stop-color="#fb642b"/></linearGradient><path d="m32.622 72.9a1.75 1.75 0 1 1 0-3.5h1.5a1.75 1.75 0 0 1 0 3.5zm83.6-10.429v8.679a1.75 1.75 0 0 1 -1.75 1.75h-72.6a1.75 1.75 0 0 1 0-3.5h70.852v-5.179h-35.442-.026-.019-7.673-.014-.012-40.772-.013-.012-13.468v5.179h10.227a1.75 1.75 0 0 1 0 3.5h-6.442l5.673 34.815a5.513 5.513 0 0 0 5.463 4.645h67.612a5.513 5.513 0 0 0 5.463-4.645l4.943-30.339a1.75 1.75 0 1 1 3.454.563l-4.943 30.339a9 9 0 0 1 -8.917 7.582h-67.612a9 9 0 0 1 -8.917-7.582l-5.765-35.378h-1.989a1.75 1.75 0 0 1 -1.75-1.75v-8.679a1.75 1.75 0 0 1 1.75-1.75h12.855l-3.821-12.321c-.014-.045-.021-.09-.035-.135v-.006-.006a14.68 14.68 0 0 1 2.438-13.206 7.034 7.034 0 0 1 -1-13.037 8.374 8.374 0 0 1 16.417-3.3 8.04 8.04 0 0 1 .143.861 8.546 8.546 0 0 1 4.373 12.309c.259.176.511.363.758.555a20.178 20.178 0 0 1 33.286-14.007 1.75 1.75 0 0 1 -2.28 2.656 16.684 16.684 0 0 0 -23.642 23.4 1.75 1.75 0 0 1 -.338 2.566 5.746 5.746 0 0 0 4.268 10.385 5.829 5.829 0 0 0 .787-.205 1.75 1.75 0 0 1 2.225 1.205 8.9 8.9 0 0 0 .979 2.283h6.329a135.732 135.732 0 0 1 -3.653-20.155l-8.912-6.789a1.75 1.75 0 0 1 2.122-2.783l6.378 4.861a94.276 94.276 0 0 1 -.227-10.138 1.75 1.75 0 0 1 3.5.17 116.847 116.847 0 0 0 1.444 20.6l5.07-9.084a1.75 1.75 0 1 1 3.056 1.707l-7.179 12.861c.545 2.8 1.211 5.736 2.023 8.753h5.44a8.978 8.978 0 0 0 -1.115-10.794 1.751 1.751 0 0 1 .26-2.617 16.7 16.7 0 0 0 3.948-4.01 15.312 15.312 0 1 1 28.338-5 15.28 15.28 0 0 1 -2.366 5.863 7.259 7.259 0 0 1 -1.323 10.7 7.213 7.213 0 0 1 -4.753 1.293 9.578 9.578 0 0 1 -4.457 4.558h19.617a1.75 1.75 0 0 1 1.751 1.757zm-30.422-17.214a1.75 1.75 0 0 1 .26 2.617 6.149 6.149 0 0 0 1.772 9.713c.869-2.93 1.546-5.774 2.072-8.457l-5.2-9.307a1.75 1.75 0 1 1 3.056-1.707l3.065 5.484a84 84 0 0 0 .867-13.714 1.75 1.75 0 0 1 1.664-1.831 1.73 1.73 0 0 1 1.833 1.662c.012.247.116 2.656-.1 6.5l3.886-2.963a1.75 1.75 0 0 1 2.122 2.783l-6.397 4.876a99.039 99.039 0 0 1 -3.392 17.275 6.12 6.12 0 0 0 5.192-4.488 1.749 1.749 0 0 1 2.229-1.2 3.666 3.666 0 0 0 .51.133 3.765 3.765 0 0 0 2.8-6.8 1.75 1.75 0 0 1 -.339-2.566 11.82 11.82 0 1 0 -15.9 2zm-5.59 15.464h6.066a9.649 9.649 0 0 1 -3.914-13.752c-.261-.239-.511-.487-.754-.742a20.1 20.1 0 0 1 -2.651 2.79 12.409 12.409 0 0 1 1.252 11.7zm-52.394-28.933a3.5 3.5 0 0 0 2.276-1.672 1.75 1.75 0 0 1 1.508-.862 1.75 1.75 0 0 1 1.509.871 5.061 5.061 0 0 0 8.008.982c.012-.011.022-.024.034-.035a5.113 5.113 0 0 0 .6-.769 5.062 5.062 0 0 0 -3.3-7.69 1.75 1.75 0 0 1 -1.409-1.817 4.874 4.874 0 1 0 -9.333 1.654 1.75 1.75 0 0 1 -1.312 2.415c-.041.007-.131.018-.2.024a3.542 3.542 0 0 0 1.6 6.9zm2.227 28.933h20.138l-.264-1.945a9.207 9.207 0 0 1 -3.079-5.4c-.043-.242-.06-.484-.083-.726l-9.242 2.044a1.75 1.75 0 0 1 -.756-3.418l10.387-2.3a9.309 9.309 0 0 1 2.137-3.606 20.153 20.153 0 0 1 -3.24-7.37 11.174 11.174 0 0 0 -3.541-3.473 8.539 8.539 0 0 1 -3.157 1.414 8.648 8.648 0 0 1 -1.866.2 8.512 8.512 0 0 1 -5.722-2.217 11.173 11.173 0 0 0 -6.206 11.864l5.464-1.208a1.75 1.75 0 0 1 .753 3.42l-5.3 1.172zm32.207 19.571v24.477a1.75 1.75 0 0 0 3.5 0v-24.477a1.75 1.75 0 0 0 -3.5 0zm-13.188-1.744a1.75 1.75 0 0 0 -1.6 1.887l2 24.477a1.75 1.75 0 0 0 1.742 1.607c.048 0 .1 0 .145-.006a1.75 1.75 0 0 0 1.6-1.887l-2-24.477a1.753 1.753 0 0 0 -1.887-1.601zm-13.167 26.5a1.75 1.75 0 1 0 3.454-.564l-4-24.477a1.75 1.75 0 1 0 -3.454.564zm41.157-24.9-2 24.477a1.75 1.75 0 0 0 1.6 1.887c.048 0 .1.006.145.006a1.75 1.75 0 0 0 1.742-1.607l2-24.477a1.75 1.75 0 0 0 -3.488-.285zm16.893 13.643 2.16-13.217a1.75 1.75 0 1 0 -3.454-.564l-2.16 13.217a1.75 1.75 0 1 0 3.454.564zm-4.374 5.061-.92 5.635a1.75 1.75 0 1 0 3.454.564l.92-5.635a1.75 1.75 0 1 0 -3.454-.564z" fill="url(#linear-gradient)"/></svg>