<?xml version="1.0"?>
<svg xmlns="http://www.w3.org/2000/svg" height="512px" viewBox="0 0 128 128" width="512px"><g><g><path d="m94 68.774a25.337 25.337 0 0 1 -3.839-15.3 27.034 27.034 0 0 0 .007-3.722 26.256 26.256 0 0 0 -19.835-23.646c-.121-11.8 1.275-15.89 1.567-16.605a1.75 1.75 0 0 0 -.909-2.26l-5.26-2.341a1.752 1.752 0 0 0 -2.159.616 17.724 17.724 0 0 0 -2.257 5.436 14.533 14.533 0 0 0 -3.893-3.822c-6.549-4.243-15.584-1.54-15.966-1.423a1.751 1.751 0 0 0 -1.223 1.886c.049.4 1.265 9.739 7.826 14a16.609 16.609 0 0 0 9.053 2.375c.872 0 1.7-.051 2.457-.126-.037.615-.071 1.243-.1 1.888a25.966 25.966 0 0 0 -13.426 6.721 26.331 26.331 0 0 0 -8.27 19.116q0 .679.034 1.352a26.794 26.794 0 0 1 -3.794 15.842 35.495 35.495 0 0 0 27.477 54.403q1.276.088 2.541.088a35.156 35.156 0 0 0 24.189-9.547 35.495 35.495 0 0 0 5.78-44.931zm-44.038-50.122c-3.793-2.462-5.38-7.44-5.962-9.952 2.538-.5 7.731-1.082 11.517 1.371a13.351 13.351 0 0 1 4.766 6.238c-.172 1.231-.32 2.566-.448 3.984-2.741.343-6.767.369-9.873-1.641zm15.8-9.905 2.376 1.053c-.621 2.386-1.366 7.072-1.313 15.708-.385-.042-.765-.1-1.155-.126q-1.35-.084-2.681-.033c.411-7.925 1.341-13.496 2.777-16.602zm20.066 102.4a31.757 31.757 0 0 1 -24.1 8.526 32 32 0 0 1 -24.763-49.039 30.256 30.256 0 0 0 4.335-17.9c-.019-.388-.029-.781-.029-1.175a22.729 22.729 0 0 1 22.715-22.73q.73 0 1.468.046a22.732 22.732 0 0 1 21.222 21.112 23.142 23.142 0 0 1 -.007 3.236 28.859 28.859 0 0 0 4.376 17.426 32 32 0 0 1 -5.213 40.5z" data-original="#000000" class="active-path" data-old_color="#000000" fill="#FFFFFF"/><path d="m64 68.375a21.75 21.75 0 1 0 21.75 21.75 21.775 21.775 0 0 0 -21.75-21.75zm0 40a18.25 18.25 0 1 1 18.25-18.25 18.271 18.271 0 0 1 -18.25 18.25z" data-original="#000000" class="active-path" data-old_color="#000000" fill="#FFFFFF"/></g></g> </svg>
