<svg id="Capa_1" enable-background="new 0 0 512 512" height="512" viewBox="0 0 512 512" width="512" xmlns="http://www.w3.org/2000/svg"><g><g><path clip-rule="evenodd" d="m113.879 178.52 111.236 110.26c4.809 3.8 7.214 5.878 9.589 5.938 2.405-.059 4.809-2.138 9.589-5.938l41.888-41.503 103.37-111.507c16.862-36.961 10.568-82.71-18.821-113.169-33.991-35.18-88.853-26.363-125.159 6.323-6.68 6.027-9.054 9.055-10.865 9.025-1.781.03-4.156-2.998-10.865-9.025-36.277-32.686-91.168-41.503-125.13-6.323-37.405 38.742-37.405 102.125 0 140.868z" fill="#ffcccf" fill-rule="evenodd"/></g><g><path clip-rule="evenodd" d="m389.551 135.77c16.862-36.961 10.568-82.71-18.821-113.169-12.172-12.587-27.016-19.564-42.72-21.79 16.991 21.203 24.173 48.161 21.525 74.22-1.716 16.884-9.158 32.676-20.701 45.118l-17.33 18.679-61.066 65.877-12.973 13.983-41.532 41.177 29.182 28.916c4.809 3.8 7.214 5.878 9.589 5.938 2.405-.059 4.809-2.138 9.589-5.938l41.888-41.503z" fill="#e7b1b9" fill-rule="evenodd"/></g><g><path clip-rule="evenodd" d="m176.756 493.565 49.102 14.666c17.396 5.195 46.964 4.958 63.975-.327 25.234-7.808 65.489-23.156 80.332-29.213l97.907-39.841c12.29-5.017 14.843-21.999 7.867-33.309-6.887-11.103-20.365-12.558-32.626-8.105l-.683.237-122.844 45.719c7.54-12.944 2.316-32.063-12.943-36.753l-112.068-38.624c-27.638-9.53-36.158-22.503-92.385-1.484l-33.843 60.177 33.843 54.774c29.628.475 43.373 2.82 74.366 12.083z" fill="#ffe4c1" fill-rule="evenodd"/></g><g><path clip-rule="evenodd" d="m319.787 443.393 122.844-45.719c.238-.089.475-.178.683-.237l.03-.03 8.669-3.206c10.123-3.592 15.497-14.814 11.904-24.938-3.592-10.123-14.814-15.467-25.382-11.727l-46.846 17.456-84.845 31.647c15.258 4.691 20.483 23.81 12.943 36.754z" fill="#f1d0a5" fill-rule="evenodd"/></g><g><path clip-rule="evenodd" d="m249.37 386.838 51.952-19.386.564-.208c9.084-3.562 13.834-13.834 10.539-23.097-3.355-9.47-13.834-14.458-23.72-10.955l-93.929 34.823z" fill="#f1d0a5" fill-rule="evenodd"/></g><g><path clip-rule="evenodd" d="m306.843 406.64 84.845-31.647c7.57-4.75 11.133-14.309 8.045-23.038-3.592-10.153-14.814-15.497-25.352-11.727l-72.495 27.016c-.178.089-.386.148-.564.208l-51.952 19.386z" fill="#f1d0a5" fill-rule="evenodd"/></g><g><path clip-rule="evenodd" d="m249.37 386.838 51.952-19.386.564-.208c9.084-3.562 13.834-13.834 10.539-23.097-1.514-4.245-4.453-7.6-8.134-9.678.623 7.838-3.919 15.497-11.548 18.466l-.564.208-64.569 26.184z" fill="#e5c093" fill-rule="evenodd"/></g><g><path clip-rule="evenodd" d="m306.843 406.64 84.845-31.647c7.57-4.75 11.133-14.309 8.045-23.038-2.82-7.927-10.301-12.944-18.465-12.944.712 1.158 1.336 2.405 1.781 3.741 3.117 8.758 1.009 12.469-6.531 17.219l-98.412 36.753z" fill="#e5c093" fill-rule="evenodd"/></g><g><path clip-rule="evenodd" d="m102.39 481.482c29.627.475 43.372 2.82 74.365 12.083l49.102 14.666c17.396 5.195 46.964 4.958 63.975-.327 25.234-7.808 65.489-23.156 80.332-29.213l97.907-39.841c12.29-5.017 14.843-21.999 7.867-33.309-.119-.148-.208-.297-.297-.445-1.87 2.583-4.394 4.661-7.57 5.967l-97.907 39.841c-14.843 6.056-55.099 21.405-80.332 29.242-17.011 5.255-46.579 5.522-63.975.297l-49.102-14.666c-30.993-9.263-44.738-11.608-74.365-12.083v2.88 18.792z" fill="#f1d0a5" fill-rule="evenodd"/></g><g><path clip-rule="evenodd" d="m341.191 291.511 60.353-59.85 8.253-8.134c20.276-21.019 20.276-55.427-.03-76.445-5.819-6.027-12.795-9.678-20.217-11.311-16.031-3.444-34.199 2.613-47.677 14.755-3.622 3.266-4.898 4.898-5.878 4.898s-2.256-1.633-5.908-4.898c-19.682-17.753-49.458-22.533-67.894-3.444-20.276 21.019-20.276 55.427 0 76.445l8.223 8.134 15.764 15.616 44.619 44.234c2.583 2.048 3.889 3.177 5.195 3.206 1.308-.029 2.584-1.157 5.197-3.206z" fill="#ff8086" fill-rule="evenodd"/></g><g><path clip-rule="evenodd" d="m409.797 223.527c20.276-21.019 20.276-55.427-.03-76.445-5.819-6.027-12.795-9.678-20.217-11.311-7.451-1.603-15.348-1.158-23.007 1.009 1.366 1.098 2.702 2.286 3.978 3.622 2.583 2.672 4.839 5.552 6.769 8.609.802 1.277 1.573 2.613 2.256 3.948 10.598 20.455 7.6 46.639-9.025 63.858l-8.223 8.164-49.31 48.866 17.812 17.664c2.583 2.048 3.889 3.177 5.195 3.206 1.306-.03 2.583-1.158 5.195-3.206l60.353-59.85z" fill="#e5646e" fill-rule="evenodd"/></g><g><path clip-rule="evenodd" d="m102.39 475.366v-107.201-8.995c0-7.511-6.145-13.656-13.656-13.656h-42.838c-7.511 0-13.656 6.145-13.656 13.656v125.192c0 7.511 6.145 13.656 13.656 13.656h42.838c7.481 0 13.656-6.145 13.656-13.656z" fill="#eceaed" fill-rule="evenodd"/></g><g><path clip-rule="evenodd" d="m45.896 498.018h42.838c7.481 0 13.656-6.145 13.656-13.656v-2.88-6.116-18.792-2.88c0 7.511-6.175 13.656-13.656 13.656h-42.838c-7.511 0-13.656-6.116-13.656-13.597v30.608c.001 7.512 6.146 13.657 13.656 13.657z" fill="#dad8db" fill-rule="evenodd"/></g><path d="m463.916 369.263c-2.108-5.908-6.798-10.183-12.439-11.994 2.85 9.827-2.82 17.961-12.587 21.435-38.89 14.458-77.839 29.717-116.728 44.175 1.659 8.681-.676 14.967-3.881 18.653-8.92 10.257-29.027 6.778-39.088 3.461l-69.208-21.588c-4.053-1.339-8.265-.349-9.602 3.702-1.338 4.052 1.516 7.151 5.568 8.489l68.401 24.072c8.155 2.69 15.143 3.737 21.081 3.737 12.908 0 30.878-4.855 40.604-26.079 37.378-13.967 69.818-26.295 107.277-39.888l8.698-3.236c10.123-3.594 15.496-14.816 11.904-24.939z" fill="#e5c093"/></g></svg>